<?xml version="1.0" encoding="utf-8" standalone="no"?>
<!DOCTYPE svg PUBLIC "-//W3C//DTD SVG 1.1//EN"
  "http://www.w3.org/Graphics/SVG/1.1/DTD/svg11.dtd">
<!-- Created with matplotlib (http://matplotlib.org/) -->
<svg height="340pt" version="1.1" viewBox="0 0 455 340" width="455pt" xmlns="http://www.w3.org/2000/svg" xmlns:xlink="http://www.w3.org/1999/xlink">
 <defs>
  <style type="text/css">
*{stroke-linecap:butt;stroke-linejoin:round;}
  </style>
 </defs>
 <g id="figure_1">
  <g id="patch_1">
   <path d="M 0 340.36 
L 455.56 340.36 
L 455.56 0 
L 0 0 
z
" style="fill:#ffffff;"/>
  </g>
  <g id="axes_1">
   <g id="patch_2">
    <path d="M 371.89311 173.121084 
C 371.89311 153.810104 368.089268 134.686899 360.699276 116.84588 
C 353.309284 99.004861 342.476858 82.792991 328.821934 69.138066 
C 315.167009 55.483142 298.955139 44.650716 281.11412 37.260724 
C 263.273101 29.870732 244.149896 26.06689 224.838916 26.06689 
C 205.527936 26.06689 186.404732 29.870732 168.563713 37.260724 
C 150.722694 44.650716 134.510823 55.483142 120.855899 69.138066 
C 107.200974 82.792991 96.368549 99.004861 88.978557 116.84588 
C 81.588565 134.686899 77.784723 153.810104 77.784723 173.121084 
C 77.784723 192.432064 81.588565 211.555268 88.978557 229.396287 
C 96.368549 247.237306 107.200974 263.449177 120.855899 277.104101 
C 134.510823 290.759026 150.722694 301.591451 168.563713 308.981443 
C 186.404732 316.371435 205.527936 320.175277 224.838916 320.175277 
C 244.149896 320.175277 263.273101 316.371435 281.11412 308.981443 
C 298.955139 301.591451 315.167009 290.759026 328.821934 277.104101 
C 342.476858 263.449177 353.309284 247.237306 360.699276 229.396287 
C 368.089268 211.555268 371.89311 192.432064 371.89311 173.121084 
M 224.838916 173.121084 
M 371.89311 173.121084 
z
" style="fill:#2b2b2b;opacity:0.5;stroke:#2b2b2b;stroke-linejoin:miter;"/>
   </g>
   <g id="patch_3">
    <path d="M 374.834194 170.18 
C 374.834194 150.86902 371.030352 131.745815 363.64036 113.904796 
C 356.250368 96.063778 345.417942 79.851907 331.763017 66.196983 
C 318.108093 52.542058 301.896222 41.709632 284.055204 34.31964 
C 266.214185 26.929648 247.09098 23.125806 227.78 23.125806 
C 208.46902 23.125806 189.345815 26.929648 171.504796 34.31964 
C 153.663778 41.709632 137.451907 52.542058 123.796983 66.196983 
C 110.142058 79.851907 99.309632 96.063778 91.91964 113.904796 
C 84.529648 131.745815 80.725806 150.86902 80.725806 170.18 
C 80.725806 189.49098 84.529648 208.614185 91.91964 226.455204 
C 99.309632 244.296222 110.142058 260.508093 123.796983 274.163017 
C 137.451907 287.817942 153.663778 298.650368 171.504796 306.04036 
C 189.345815 313.430352 208.46902 317.234194 227.78 317.234194 
C 247.09098 317.234194 266.214185 313.430352 284.055204 306.04036 
C 301.896222 298.650368 318.108093 287.817942 331.763017 274.163017 
C 345.417942 260.508093 356.250368 244.296222 363.64036 226.455204 
C 371.030352 208.614185 374.834194 189.49098 374.834194 170.18 
M 227.78 170.18 
M 374.834194 170.18 
z
" style="fill:#919191;stroke:#000000;stroke-linejoin:miter;"/>
   </g>
   <g id="matplotlib.axis_1"/>
   <g id="matplotlib.axis_2"/>
   <g id="text_1">
    <!-- A -->
    <defs>
     <path d="M 34.1875 63.1875 
L 20.796875 26.90625 
L 47.609375 26.90625 
z
M 28.609375 72.90625 
L 39.796875 72.90625 
L 67.578125 0 
L 57.328125 0 
L 50.6875 18.703125 
L 17.828125 18.703125 
L 11.1875 0 
L 0.78125 0 
z
" id="DejaVuSans-41"/>
    </defs>
    <g transform="translate(103.137743 288.700382)scale(0.15 -0.15)">
     <use xlink:href="#DejaVuSans-41"/>
    </g>
   </g>
   <g id="text_2">
    <!-- 100.0% -->
    <defs>
     <path d="M 12.40625 8.296875 
L 28.515625 8.296875 
L 28.515625 63.921875 
L 10.984375 60.40625 
L 10.984375 69.390625 
L 28.421875 72.90625 
L 38.28125 72.90625 
L 38.28125 8.296875 
L 54.390625 8.296875 
L 54.390625 0 
L 12.40625 0 
z
" id="DejaVuSans-31"/>
     <path d="M 31.78125 66.40625 
Q 24.171875 66.40625 20.328125 58.90625 
Q 16.5 51.421875 16.5 36.375 
Q 16.5 21.390625 20.328125 13.890625 
Q 24.171875 6.390625 31.78125 6.390625 
Q 39.453125 6.390625 43.28125 13.890625 
Q 47.125 21.390625 47.125 36.375 
Q 47.125 51.421875 43.28125 58.90625 
Q 39.453125 66.40625 31.78125 66.40625 
z
M 31.78125 74.21875 
Q 44.046875 74.21875 50.515625 64.515625 
Q 56.984375 54.828125 56.984375 36.375 
Q 56.984375 17.96875 50.515625 8.265625 
Q 44.046875 -1.421875 31.78125 -1.421875 
Q 19.53125 -1.421875 13.0625 8.265625 
Q 6.59375 17.96875 6.59375 36.375 
Q 6.59375 54.828125 13.0625 64.515625 
Q 19.53125 74.21875 31.78125 74.21875 
z
" id="DejaVuSans-30"/>
     <path d="M 10.6875 12.40625 
L 21 12.40625 
L 21 0 
L 10.6875 0 
z
" id="DejaVuSans-2e"/>
     <path d="M 72.703125 32.078125 
Q 68.453125 32.078125 66.03125 28.46875 
Q 63.625 24.859375 63.625 18.40625 
Q 63.625 12.0625 66.03125 8.421875 
Q 68.453125 4.78125 72.703125 4.78125 
Q 76.859375 4.78125 79.265625 8.421875 
Q 81.6875 12.0625 81.6875 18.40625 
Q 81.6875 24.8125 79.265625 28.4375 
Q 76.859375 32.078125 72.703125 32.078125 
z
M 72.703125 38.28125 
Q 80.421875 38.28125 84.953125 32.90625 
Q 89.5 27.546875 89.5 18.40625 
Q 89.5 9.28125 84.9375 3.921875 
Q 80.375 -1.421875 72.703125 -1.421875 
Q 64.890625 -1.421875 60.34375 3.921875 
Q 55.8125 9.28125 55.8125 18.40625 
Q 55.8125 27.59375 60.375 32.9375 
Q 64.9375 38.28125 72.703125 38.28125 
z
M 22.3125 68.015625 
Q 18.109375 68.015625 15.6875 64.375 
Q 13.28125 60.75 13.28125 54.390625 
Q 13.28125 47.953125 15.671875 44.328125 
Q 18.0625 40.71875 22.3125 40.71875 
Q 26.5625 40.71875 28.96875 44.328125 
Q 31.390625 47.953125 31.390625 54.390625 
Q 31.390625 60.6875 28.953125 64.34375 
Q 26.515625 68.015625 22.3125 68.015625 
z
M 66.40625 74.21875 
L 74.21875 74.21875 
L 28.609375 -1.421875 
L 20.796875 -1.421875 
z
M 22.3125 74.21875 
Q 30.03125 74.21875 34.609375 68.875 
Q 39.203125 63.53125 39.203125 54.390625 
Q 39.203125 45.171875 34.640625 39.84375 
Q 30.078125 34.515625 22.3125 34.515625 
Q 14.546875 34.515625 10.03125 39.859375 
Q 5.515625 45.21875 5.515625 54.390625 
Q 5.515625 63.484375 10.046875 68.84375 
Q 14.59375 74.21875 22.3125 74.21875 
z
" id="DejaVuSans-25"/>
    </defs>
    <g transform="translate(136.792924 236.708873)scale(0.15 -0.15)">
     <use xlink:href="#DejaVuSans-31"/>
     <use x="63.623047" xlink:href="#DejaVuSans-30"/>
     <use x="127.246094" xlink:href="#DejaVuSans-30"/>
     <use x="190.869141" xlink:href="#DejaVuSans-2e"/>
     <use x="222.65625" xlink:href="#DejaVuSans-30"/>
     <use x="286.279297" xlink:href="#DejaVuSans-25"/>
    </g>
   </g>
  </g>
 </g>
</svg>
